<svg width="237" height="48" viewBox="0 0 237 48" fill="none" xmlns="http://www.w3.org/2000/svg">
<path d="M8.9 20.824C8.9 22.32 9.57467 23.7427 10.924 25.092C12.7427 23.5667 13.652 21.9093 13.652 20.12C13.652 19.4453 13.4613 18.8733 13.08 18.404C12.6987 17.9347 12.1413 17.7 11.408 17.7C10.6747 17.7 10.0733 18.008 9.604 18.624C9.13467 19.24 8.9 19.9733 8.9 20.824ZM28.392 24.036L28.172 38.38C28.172 40.7267 28.392 42.2667 28.832 43C28.304 43.2053 27.688 43.308 26.984 43.308C25.488 43.308 24.3733 42.8533 23.64 41.944C22.936 41.0053 22.584 39.9053 22.584 38.644C22.584 37.3533 22.716 36.18 22.98 35.124C21.2787 37.06 19.4307 38.6733 17.436 39.964C15.4707 41.2547 13.7253 41.9 12.2 41.9C10.6747 41.9 9.53067 41.5333 8.768 40.8C8.00533 40.0667 7.58 39.0693 7.492 37.808C9.01733 37.632 10.6747 37.104 12.464 36.224C14.2827 35.344 16.0427 34.1413 17.744 32.616C16.0133 32.0587 14.3707 31.3987 12.816 30.636C11.496 31.516 10.132 32.2347 8.724 32.792C7.316 33.32 6.06933 33.584 4.984 33.584C3.928 33.584 2.97467 33.2173 2.124 32.484C1.30267 31.7507 0.848 30.7387 0.76 29.448C2.75467 29.2133 4.984 28.5093 7.448 27.336C4.51467 24.9013 3.048 22.364 3.048 19.724C3.048 17.9053 3.664 16.4093 4.896 15.236C6.15733 14.0627 7.81467 13.476 9.868 13.476C11.9213 13.476 13.8427 14.3853 15.632 16.204C17.4213 18.0227 18.316 20.032 18.316 22.232C18.316 24.432 17.436 26.4413 15.676 28.26C17.876 29.2573 20.1347 30.0053 22.452 30.504C22.5107 27.9813 22.54 25.6933 22.54 23.64C22.54 21.5867 22.4373 20.2813 22.232 19.724C22.056 19.1667 21.5573 18.492 20.736 17.7C19.9147 16.8787 19.504 15.896 19.504 14.752C19.504 14.2533 19.5773 13.8573 19.724 13.564H28.788C32.484 13.564 34.332 14.8107 34.332 17.304C34.332 17.832 34.2293 18.3013 34.024 18.712H26.632C27.8053 19.5627 28.392 21.3373 28.392 24.036ZM34.7823 36.62L35.0023 22.364C35.0023 21.4547 34.973 20.2373 34.9143 18.712H33.4623C29.7663 18.712 27.9183 17.392 27.9183 14.752C27.9183 14.2533 27.9916 13.8573 28.1383 13.564H34.4743C33.7116 8.25467 31.893 5.6 29.0183 5.6C27.9916 5.6 27.185 5.952 26.5983 6.656C25.9823 7.36 25.6743 8.18133 25.6743 9.12C25.6743 10.0293 25.909 10.8507 26.3783 11.584C26.0263 11.8187 25.5716 11.936 25.0143 11.936C23.7823 11.936 22.7556 11.3787 21.9343 10.264C21.113 9.12 20.7023 7.77066 20.7023 6.216C20.7023 4.66133 21.2743 3.356 22.4183 2.3C23.533 1.21466 24.941 0.671997 26.6423 0.671997C29.517 0.671997 32.069 1.88933 34.2983 4.324C36.5276 6.72933 38.229 9.80933 39.4023 13.564H41.2503C44.9463 13.564 46.7943 14.8107 46.7943 17.304C46.7943 17.832 46.6916 18.3013 46.4863 18.712H40.5463C40.7516 20.0613 40.8543 21.5133 40.8543 23.068L40.6343 38.38C40.6343 40.7267 40.8543 42.2667 41.2943 43C40.7956 43.2053 40.1796 43.308 39.4463 43.308C36.337 43.308 34.7823 41.0787 34.7823 36.62ZM55.0312 24.036V25.928C57.9646 26.0453 60.4139 26.1773 62.3793 26.324V23.288C62.3793 20.912 62.1593 19.3867 61.7193 18.712H53.3153C54.4593 19.592 55.0312 21.3667 55.0312 24.036ZM68.2313 24.036L68.0113 38.38C68.0113 40.7267 68.2313 42.2667 68.6713 43C68.1433 43.2053 67.5273 43.308 66.8233 43.308C63.7139 43.308 62.1593 41.0787 62.1593 36.62C62.1593 35.0653 62.2033 33.2613 62.2913 31.208H54.6793C54.4446 32.704 54.0926 33.7893 53.6233 34.464C53.1539 35.1387 52.4793 35.476 51.5993 35.476C50.1326 35.476 48.7246 34.728 47.3753 33.232C46.0553 31.736 45.3953 30.3133 45.3953 28.964C45.3953 27.116 46.6566 26.0893 49.1793 25.884C49.2086 25.444 49.2233 24.7987 49.2233 23.948C49.2233 21.22 48.9739 19.4747 48.4753 18.712H45.9233C42.2272 18.712 40.3792 17.392 40.3792 14.752C40.3792 14.2533 40.4526 13.8573 40.5992 13.564H68.6273C72.3233 13.564 74.1713 14.8107 74.1713 17.304C74.1713 17.832 74.0686 18.3013 73.8633 18.712H66.5153C67.6593 19.592 68.2313 21.3667 68.2313 24.036ZM103.61 13.564C107.306 13.564 109.154 14.8107 109.154 17.304C109.154 17.832 109.052 18.3013 108.846 18.712H99.4743C100.501 19.5627 101.014 20.516 101.014 21.572C101.014 22.628 100.545 23.4787 99.6063 24.124C98.697 24.7693 97.5823 25.2533 96.2623 25.576C94.9423 25.8987 93.6223 26.2213 92.3023 26.544C89.1343 27.2773 87.5503 28.4947 87.5503 30.196C87.5503 31.428 88.1077 32.3227 89.2223 32.88C90.337 33.4373 91.4957 33.716 92.6983 33.716C93.9303 33.716 94.957 33.584 95.7783 33.32C95.6023 32.8507 95.5143 32.2347 95.5143 31.472C95.5143 30.7093 95.837 30.02 96.4823 29.404C97.157 28.788 97.9783 28.48 98.9463 28.48C99.9143 28.48 100.736 28.9053 101.41 29.756C102.114 30.6067 102.466 31.604 102.466 32.748C102.466 34.5667 101.689 35.9747 100.134 36.972C101.132 38.0867 102.232 38.644 103.434 38.644C104.637 38.644 105.473 38.248 105.942 37.456C107.204 38.1307 107.834 39.1867 107.834 40.624C107.834 41.5627 107.482 42.3693 106.778 43.044C106.104 43.7187 105.18 44.056 104.006 44.056C101.161 44.056 98.9463 42.164 97.3623 38.38L87.7703 43C87.9463 43.704 88.0343 44.4227 88.0343 45.156C88.0343 45.8893 87.7117 46.4907 87.0663 46.96C86.421 47.4293 85.5263 47.664 84.3823 47.664C83.2383 47.664 82.0357 47.2973 80.7743 46.564C79.513 45.86 78.8823 44.9067 78.8823 43.704C78.8823 42.5013 79.7477 41.4453 81.4783 40.536C79.9823 36.9573 78.7357 35.168 77.7383 35.168C77.3863 35.168 77.093 35.3 76.8583 35.564C76.6237 35.828 76.5063 36.1653 76.5063 36.576C76.5063 37.984 77.093 39.1427 78.2663 40.052C77.709 40.6093 76.9023 40.888 75.8463 40.888C74.8197 40.888 73.8223 40.3453 72.8543 39.26C71.8863 38.1453 71.4023 36.9573 71.4023 35.696C71.4023 34.4347 71.857 33.4373 72.7663 32.704C73.705 31.9413 74.805 31.56 76.0663 31.56C77.9437 31.56 79.7477 32.2347 81.4783 33.584C83.2383 34.9333 84.7197 36.62 85.9223 38.644C87.5063 38.028 88.9143 37.5293 90.1463 37.148C88.0343 36.268 86.245 35.0213 84.7783 33.408C83.3117 31.7947 82.5783 30.2107 82.5783 28.656C82.5783 27.072 83.033 25.796 83.9423 24.828C84.881 23.8307 85.9957 23.1267 87.2863 22.716C88.6063 22.3053 89.9117 21.968 91.2023 21.704C92.5223 21.44 93.637 21.1613 94.5463 20.868C95.485 20.5453 95.9543 20.1347 95.9543 19.636C95.9543 19.3427 95.793 19.0347 95.4703 18.712H73.6463C69.9503 18.712 68.1023 17.392 68.1023 14.752C68.1023 14.2533 68.1757 13.8573 68.3223 13.564H103.61ZM123.335 36.62L123.555 23.288C123.555 20.912 123.335 19.3867 122.895 18.712H114.579C115.665 19.768 116.53 21.1027 117.175 22.716C117.821 24.3293 118.143 26.0307 118.143 27.82C118.143 29.6093 117.645 31.0173 116.647 32.044C115.65 33.0707 114.403 33.584 112.907 33.584C111.411 33.584 110.033 33.0267 108.771 31.912C107.51 30.768 106.879 29.3893 106.879 27.776C106.879 26.8667 107.129 26.1773 107.627 25.708C108.126 25.2093 108.742 24.96 109.475 24.96C110.59 24.96 111.514 25.5173 112.247 26.632C112.599 26.1627 112.775 25.4147 112.775 24.388C112.775 22.012 111.851 20.12 110.003 18.712H107.583C103.887 18.712 102.039 17.392 102.039 14.752C102.039 14.2533 102.113 13.8573 102.259 13.564H129.847C133.543 13.564 135.391 14.8107 135.391 17.304C135.391 17.832 135.289 18.3013 135.083 18.712H127.691C128.835 19.592 129.407 21.3667 129.407 24.036L129.187 38.38C129.187 40.7267 129.407 42.2667 129.847 43C129.349 43.2053 128.733 43.308 127.999 43.308C124.89 43.308 123.335 41.0787 123.335 36.62ZM148.561 28.26L148.605 23.288C148.605 20.912 148.385 19.3867 147.945 18.712H134.657C130.961 18.712 129.113 17.392 129.113 14.752C129.113 14.2533 129.186 13.8573 129.333 13.564H154.853C158.549 13.564 160.397 14.8107 160.397 17.304C160.397 17.832 160.294 18.3013 160.089 18.712H152.741C153.885 19.592 154.457 21.3667 154.457 24.036L154.237 38.38C154.237 40.7267 154.457 42.2667 154.897 43C154.369 43.2053 153.753 43.308 153.049 43.308C151.553 43.308 150.438 42.8533 149.705 41.944C149.001 41.0053 148.649 40.008 148.649 38.952C148.649 37.896 148.766 36.9867 149.001 36.224C147.769 37.28 146.229 37.808 144.381 37.808C141.682 37.808 139.262 36.6787 137.121 34.42C134.979 32.132 133.909 29.932 133.909 27.82C133.909 25.708 134.539 24.124 135.801 23.068C137.091 22.012 138.529 21.484 140.113 21.484C141.697 21.484 143.002 21.8507 144.029 22.584C145.085 23.288 145.613 24.168 145.613 25.224C145.613 26.28 145.393 27.0867 144.953 27.644C144.102 27.116 143.163 26.852 142.137 26.852C141.11 26.852 140.245 27.1307 139.541 27.688C138.866 28.2453 138.529 28.9933 138.529 29.932C138.529 30.8707 138.866 31.6333 139.541 32.22C140.245 32.8067 141.198 33.1 142.401 33.1C143.603 33.1 144.762 32.66 145.877 31.78C147.021 30.8707 147.915 29.6973 148.561 28.26ZM181.577 13.564C185.273 13.564 187.121 14.8107 187.121 17.304C187.121 17.832 187.018 18.3013 186.813 18.712H177.441C178.467 19.5627 178.981 20.5307 178.981 21.616C178.981 22.7013 178.467 23.596 177.441 24.3C176.443 24.9747 175.226 25.4733 173.789 25.796C172.351 26.1187 170.914 26.4413 169.477 26.764C166.015 27.5267 164.285 28.8173 164.285 30.636C164.285 31.8093 164.857 32.6453 166.001 33.144C167.174 33.6427 168.494 33.892 169.961 33.892C171.427 33.892 172.689 33.7013 173.745 33.32C173.569 32.8507 173.481 32.2347 173.481 31.472C173.481 30.7093 173.803 30.02 174.449 29.404C175.123 28.788 175.945 28.48 176.913 28.48C177.881 28.48 178.702 28.9053 179.377 29.756C180.081 30.6067 180.433 31.604 180.433 32.748C180.433 34.508 179.655 35.916 178.101 36.972C179.069 38.0867 180.154 38.644 181.357 38.644C182.589 38.644 183.439 38.248 183.909 37.456C185.17 38.1307 185.801 39.1867 185.801 40.624C185.801 41.5627 185.449 42.3693 184.745 43.044C184.07 43.7187 183.146 44.056 181.973 44.056C179.098 44.056 176.839 42.076 175.197 38.116C174.346 38.292 173.305 38.38 172.073 38.38C170.87 38.38 169.345 38.0427 167.497 37.368C168.553 38.9227 169.081 40.536 169.081 42.208C169.081 43.88 168.626 45.1413 167.717 45.992C166.837 46.872 165.737 47.312 164.417 47.312C163.126 47.312 161.923 46.8133 160.809 45.816C159.694 44.848 159.137 43.6307 159.137 42.164C159.137 41.372 159.357 40.7707 159.797 40.36C160.237 39.92 160.867 39.7 161.689 39.7C162.539 39.7 163.287 40.1107 163.933 40.932C164.226 40.3747 164.373 39.7147 164.373 38.952C164.373 38.16 163.947 37.192 163.097 36.048C162.275 34.904 161.439 33.716 160.589 32.484C159.738 31.2227 159.313 29.9907 159.313 28.788C159.313 27.5853 159.665 26.5147 160.369 25.576C161.102 24.608 162.011 23.904 163.097 23.464C164.182 22.9947 165.355 22.5987 166.617 22.276C167.878 21.924 169.051 21.66 170.137 21.484C172.659 21.0733 173.921 20.4573 173.921 19.636C173.921 19.3427 173.759 19.0347 173.437 18.712H160.325C156.629 18.712 154.781 17.392 154.781 14.752C154.781 14.2533 154.854 13.8573 155.001 13.564H181.577ZM186.849 36.62L187.069 22.364C187.069 21.4547 187.039 20.2373 186.981 18.712H185.529C181.833 18.712 179.985 17.392 179.985 14.752C179.985 14.2533 180.058 13.8573 180.205 13.564H186.541C185.778 8.25467 183.959 5.6 181.085 5.6C180.058 5.6 179.251 5.952 178.665 6.656C178.049 7.36 177.741 8.18133 177.741 9.12C177.741 10.0293 177.975 10.8507 178.445 11.584C178.093 11.8187 177.638 11.936 177.081 11.936C175.849 11.936 174.822 11.3787 174.001 10.264C173.179 9.12 172.769 7.77066 172.769 6.216C172.769 4.66133 173.341 3.356 174.485 2.3C175.599 1.21466 177.007 0.671997 178.709 0.671997C181.583 0.671997 184.135 1.88933 186.365 4.324C188.594 6.72933 190.295 9.80933 191.469 13.564H193.317C197.013 13.564 198.861 14.8107 198.861 17.304C198.861 17.832 198.758 18.3013 198.553 18.712H192.613C192.818 20.0613 192.921 21.5133 192.921 23.068L192.701 38.38C192.701 40.7267 192.921 42.2667 193.361 43C192.862 43.2053 192.246 43.308 191.513 43.308C188.403 43.308 186.849 41.0787 186.849 36.62ZM217.922 24.036L217.702 38.38C217.702 40.7267 217.922 42.2667 218.362 43C217.834 43.2053 217.218 43.308 216.514 43.308C213.404 43.308 211.85 41.0787 211.85 36.62C211.85 35.828 211.908 33.1733 212.026 28.656H207.538C206.335 28.656 205.382 28.9787 204.678 29.624C204.003 30.2693 203.666 31.1933 203.666 32.396C203.666 35.4467 204.766 38.468 206.966 41.46C206.643 42.1347 206.071 42.472 205.25 42.472C204.458 42.472 203.49 41.856 202.346 40.624C201.231 39.3627 200.234 37.764 199.354 35.828C198.503 33.8627 198.078 32.044 198.078 30.372C198.078 27.9667 198.782 26.2067 200.19 25.092C201.627 23.9773 203.328 23.42 205.294 23.42C207.259 23.42 209.518 23.5667 212.07 23.86V23.64C212.07 21.088 211.85 19.4453 211.41 18.712H198.562C194.866 18.712 193.018 17.392 193.018 14.752C193.018 14.2533 193.091 13.8573 193.238 13.564H218.142C221.838 13.564 223.686 14.8107 223.686 17.304C223.686 17.832 223.583 18.3013 223.378 18.712H216.206C217.35 19.592 217.922 21.3667 217.922 24.036ZM224.146 36.62L224.366 23.288C224.366 20.912 224.146 19.3867 223.706 18.712H222.826C219.13 18.712 217.282 17.392 217.282 14.752C217.282 14.2533 217.355 13.8573 217.502 13.564H230.614C234.31 13.564 236.158 14.8107 236.158 17.304C236.158 17.832 236.055 18.3013 235.85 18.712H228.502C229.646 19.592 230.218 21.3667 230.218 24.036L229.998 38.38C229.998 40.7267 230.218 42.2667 230.658 43C230.159 43.2053 229.543 43.308 228.81 43.308C225.7 43.308 224.146 41.0787 224.146 36.62Z" fill="url(#paint0_linear_1636_509)"/>
<defs>
<linearGradient id="paint0_linear_1636_509" x1="-1" y1="-12" x2="255" y2="60" gradientUnits="userSpaceOnUse">
<stop offset="0.294" stop-color="#E76F51"/>
<stop offset="1" stop-color="#F3924C"/>
</linearGradient>
</defs>
</svg>
